<svg height="512pt" viewBox="0 -1 512.001 512" width="512pt" xmlns="http://www.w3.org/2000/svg"><path d="M142.48 68.023v4.122h267.735c15.101 0 27.457 12.351 27.457 27.453V439.73h46.875c15.098 0 27.453-12.355 27.453-27.453V68.023H142.48zm0 0" fill="#b4dbff"/><path d="M142.48 72.145h267.735c15.101 0 27.457 12.351 27.457 27.453V439.73h32.965V97.54a57.993 57.993 0 00-8.043-29.517H142.48zm0 0" fill="#8bcaff"/><path d="M0 138.105V482.36c0 15.098 12.355 27.454 27.453 27.454h384.82c15.102 0 27.454-12.356 27.454-27.454V138.105zm0 0" fill="#d9edff"/><path d="M30.137 482.36V138.104H0V482.36c0 15.098 12.355 27.454 27.453 27.454H57.59c-15.102 0-27.453-12.356-27.453-27.454zm0 0" fill="#b4dbff"/><path d="M484.547 0H142.48v70.082H512V27.457C512 12.355 499.645 0 484.547 0zm0 0" fill="#4f66d1"/><path d="M463.758 70.082c-9.84-18.375-29.223-30.906-51.485-30.906H142.48v30.906zm0 0" fill="#314dca"/><path d="M412.273 70.082H70.211v70.082h369.52V97.54c0-15.101-12.356-27.457-27.458-27.457zm0 0" fill="#6c7fd9"/><path d="M477.18 42.77h-21.59a7.727 7.727 0 110-15.453h21.59a7.724 7.724 0 017.726 7.726 7.726 7.726 0 01-7.726 7.727zm0 0" fill="#314dca"/><path d="M404.91 112.852h-21.594a7.726 7.726 0 110-15.453h21.594a7.726 7.726 0 017.727 7.726 7.726 7.726 0 01-7.727 7.727zm0 0" fill="#4f66d1"/><path d="M144.54 0H99.726C84.625 0 72.27 12.355 72.27 27.453v42.629h72.27zm0 0" fill="#ff4755"/><path d="M112.422 39.176a9.24 9.24 0 01-9.242-9.242v-2.477C103.18 12.355 115.53 0 130.633 0H99.727C84.625 0 72.27 12.355 72.27 27.457v42.625h72.27V39.176zm0 0" fill="#fc2b3a"/><path d="M72.27 70.082H27.453C12.355 70.082 0 82.438 0 97.539v42.625h72.27zm0 0" fill="#ff646f"/><path d="M57.59 70.082H27.453C12.355 70.082 0 82.438 0 97.539v42.625h30.137V97.54c0-15.101 12.351-27.457 27.453-27.457zm0 0" fill="#ff4755"/><path d="M273.809 365.684c-4.36-5.954-3.067-14.313 2.886-18.672l42.403-31.04-42.403-31.042c-5.953-4.36-7.246-12.72-2.886-18.672 4.355-5.95 12.714-7.246 18.668-2.887l57.125 41.824c7.285 5.332 7.285 16.227 0 21.555l-57.125 41.82c-5.954 4.36-14.313 3.067-18.668-2.886zm-126.555 2.886l-57.125-41.82c-7.285-5.332-7.285-16.227 0-21.555l57.125-41.82c5.953-4.36 14.309-3.066 18.668 2.887s3.066 14.312-2.887 18.668l-42.402 31.043 42.402 31.039c5.953 4.36 7.246 12.718 2.887 18.672-4.356 5.949-12.715 7.25-18.668 2.886zm32.629 26.621c-6.617-3.265-9.332-11.273-6.07-17.89l66.343-134.477c3.266-6.617 11.274-9.336 17.89-6.07 6.618 3.262 9.337 11.273 6.071 17.89l-66.344 134.477c-3.261 6.617-11.273 9.336-17.89 6.07zm0 0" fill="#6c7fd9"/><path d="M293.238 365.48c-4.238-6.015-2.547-14.382 3.39-18.73l37.458-27.422c2.27-1.664 2.27-5.05 0-6.71l-37.457-27.427c-5.938-4.343-7.629-12.714-3.395-18.726.403-.57.852-1.086 1.32-1.574l-2.077-1.52c-5.954-4.36-14.313-3.062-18.668 2.887-4.36 5.953-3.067 14.312 2.886 18.672l42.403 31.039-42.403 31.043c-5.953 4.36-7.246 12.718-2.886 18.672 4.355 5.953 12.714 7.246 18.668 2.886l2.078-1.52c-.47-.484-.918-1-1.317-1.57zM109.7 326.75c-7.286-5.332-7.282-16.227 0-21.555l55.054-40.304c-4.566-4.746-12.043-5.516-17.504-1.516l-57.125 41.82c-7.281 5.332-7.285 16.223 0 21.555l57.125 41.82c5.465 4 12.938 3.227 17.504-1.515zm83.687 50.55l66.343-134.476a13.346 13.346 0 012.188-3.172 13.274 13.274 0 00-3.871-2.898c-6.617-3.266-14.625-.547-17.89 6.07l-66.345 134.477c-3.261 6.617-.546 14.625 6.07 17.89 5.43 2.676 11.79 1.325 15.704-2.898-3.66-3.945-4.719-9.879-2.2-14.992zm0 0" fill="#4f66d1"/></svg>